Coordinates
nRows=9
nColumns=38

# SIMM Motion File Header:
name Coordinates
datacolumns 38
datarows 9
otherdata 1
range 0.93000000000000005000 0.93799999999999994000

Units are S.I. units (second, meters, Newtons, ...)
Angles are in degrees.

endheader
time	pelvis_tilt	pelvis_list	pelvis_rotation	pelvis_tx	pelvis_ty	pelvis_tz	hip_flexion_r	hip_adduction_r	hip_rotation_r	knee_angle_r	ankle_angle_r	subtalar_angle_r	mtp_angle_r	hip_flexion_l	hip_adduction_l	hip_rotation_l	knee_angle_l	ankle_angle_l	subtalar_angle_l	mtp_angle_l	lumbar_extension	lumbar_bending	lumbar_rotation	arm_flex_r	arm_add_r	arm_rot_r	elbow_flex_r	pro_sup_r	wrist_flex_r	wrist_dev_r	arm_flex_l	arm_add_l	arm_rot_l	elbow_flex_l	pro_sup_l	wrist_flex_l	wrist_dev_l
      0.93000000000000005000	     -0.00531808028644933490	      5.84464347929738360000	      0.06464863541107553100	      0.81989012360809144000	      0.99523812686388657000	     -0.33530457302683919000	     30.79379243432320500000	     -3.18018968413971100000	      1.26403132441005610000	    -85.96483687301241600000	     -0.69019883179104691000	     -0.00000000000008697445	     -0.00000000000004641923	      0.85048413872253859000	     11.97181140138732900000	      7.70421308213476410000	    -30.76146719482743900000	     21.51853853371109400000	     -0.00000000000016680616	      0.00000000000004437039	    -15.80165409177939800000	    -12.80536567217763800000	     -9.42413332312785280000	    -23.36056464011914400000	    -17.24705171807055800000	     -8.17963959574119850000	     84.55840094092349100000	     70.06630667694341200000	      0.00000000000000659333	     -0.00000000000002519857	     -1.10243592864731350000	    -22.80061200196631400000	     -1.32451346908278240000	     89.92034654409309300000	     98.02335392095682200000	     -0.00000000000004282244	     -0.00000000000001520206
      0.93100000000000005000	     -0.02140233921545703400	      5.77404583008262500000	      0.06240069555469800900	      0.82002999065745807000	      0.99577606231578109000	     -0.33529098049821204000	     30.94776892530203900000	     -3.10383229227402690000	      1.20494443630627710000	    -85.64967882019588800000	     -0.63067172716419151000	     -0.00000000000008717792	     -0.00000000000004659367	      0.51933859578454877000	     11.88469329129677000000	      7.79668040952614570000	    -30.46573444314482200000	     21.32340435800071200000	     -0.00000000000016749213	      0.00000000000004500469	    -15.77096656326631000000	    -12.71230006554817400000	     -9.48529878918603590000	    -23.49562373045069200000	    -17.22529215641641900000	     -8.21610928418236600000	     84.61401699988742600000	     70.06582757619602800000	      0.00000000000000660238	     -0.00000000000002528324	     -1.04239602615495360000	    -22.72603958054111200000	     -1.38846444893248690000	     90.10523190117567100000	     98.02062421671573100000	     -0.00000000000004294272	     -0.00000000000001540287
      0.93200000000000005000	     -0.03653542305660945800	      5.70245561571363260000	      0.05853516483005957000	      0.82017660785473279000	      0.99632154628314751000	     -0.33527349465858558000	     31.09686163681841400000	     -3.02567976762555850000	      1.14562390296602290000	    -85.32782664835825400000	     -0.56987732244611689000	     -0.00000000000008738298	     -0.00000000000004676857	      0.18655026903181690000	     11.79563675080113000000	      7.88702826558879710000	    -30.16735853306767000000	     21.12154560372662000000	     -0.00000000000016821512	      0.00000000000004565001	    -15.74017187990522100000	    -12.61840922988793600000	     -9.54510363600575570000	    -23.63046071856859200000	    -17.20438356983795500000	     -8.25274040741183160000	     84.67062591246673300000	     70.06740979299121400000	      0.00000000000000661127	     -0.00000000000002536692	     -0.98564814575114823000	    -22.65254229297607200000	     -1.45181446193323920000	     90.29182578896177300000	     98.01882120177086200000	     -0.00000000000004306444	     -0.00000000000001560588
      0.93300000000000005000	     -0.05069030207723113100	      5.62986612313116290000	      0.05304508146304187700	      0.82032987866877793000	      0.99687444496585698000	     -0.33525204541531928000	     31.24104334254452900000	     -2.94568699943936660000	      1.08608091332841280000	    -84.99931050194966500000	     -0.50794749156792873000	     -0.00000000000008759614	     -0.00000000000004694230	     -0.14783086939355813000	     11.70463843599109300000	      7.97511322025235540000	    -29.86643187581689300000	     20.91287411105679800000	     -0.00000000000016893074	      0.00000000000004633173	    -15.70932228396055800000	    -12.52369849810028900000	     -9.60353819966452880000	    -23.76502162881159900000	    -17.18432381409040800000	     -8.28949183109426360000	     84.72815075433388200000	     70.07090918325938800000	      0.00000000000000661940	     -0.00000000000002545231	     -0.93210806757192866000	    -22.58016193451142000000	     -1.51449328804434400000	     90.48002176753381300000	     98.01804504927892500000	     -0.00000000000004318566	     -0.00000000000001581483
      0.93399999999999994000	     -0.06384563815638401300	      5.55626900070669190000	      0.04592719384572022800	      0.82048970235426577000	      0.99743461488274854000	     -0.33522656776045118000	     31.38029358082267700000	     -2.86380783058873640000	      1.02632612185230390000	    -84.66415842964934800000	     -0.44502755471639305000	     -0.00000000000008781120	     -0.00000000000004711650	     -0.48375061674539871000	     11.61169402278634900000	      8.06079338153509360000	    -29.56304331183077800000	     20.69729920408963900000	     -0.00000000000016963853	      0.00000000000004703927	    -15.67846472290530400000	    -12.42817059763588700000	     -9.66059227520134910000	    -23.89925635966840300000	    -17.16510946978500500000	     -8.32632410774818330000	     84.78651864656231400000	     70.07617330061982800000	      0.00000000000000662718	     -0.00000000000002553589	     -0.88168882794994874000	    -22.50893838859444100000	     -1.57642919365739110000	     90.66971577914682700000	     98.01838499021573600000	     -0.00000000000004330615	     -0.00000000000001602555
      0.93499999999999994000	     -0.07598604018421534200	      5.48165455063284310000	      0.03718205325575316800	      0.82065597430559345000	      0.99800190250989229000	     -0.33519700201445057000	     31.51459880804511800000	     -2.77999553915075070000	      0.96636991030077790000	    -84.32239636810544400000	     -0.38127559181816428000	     -0.00000000000008802321	     -0.00000000000004729064	     -0.82115027365169446000	     11.51679861616299400000	      8.14392899180275800000	    -29.25727838813997600000	     20.47472862221960800000	     -0.00000000000017034766	      0.00000000000004776968	    -15.64764051330774400000	    -12.33182597125500600000	     -9.71625544800491170000	    -24.03311862374059900000	    -17.14673580899341600000	     -8.36319948257855120000	     84.84566057252037300000	     70.08304293298924400000	      0.00000000000000663453	     -0.00000000000002561854	     -0.83430115773642310000	    -22.43890968677052200000	     -1.63754906696608950000	     90.86080618808352900000	     98.01991907291542800000	     -0.00000000000004342677	     -0.00000000000001624047
      0.93599999999999994000	     -0.08710220353897177300	      5.40601202602260680000	      0.02681410603853692400	      0.82082858643293122000	      0.99857614418065543000	     -0.33516329408428203000	     31.64395240817039900000	     -2.69420333114643770000	      0.90622263567589745000	    -83.97404810189993900000	     -0.31686173903621184000	     -0.00000000000008823476	     -0.00000000000004746518	     -1.15996650858146210000	     11.41994716362295000000	      8.22438304621736190000	    -28.94921965021445900000	     20.24506951174453600000	     -0.00000000000017107627	      0.00000000000004846270	    -15.61688514017180800000	    -12.23466309499049800000	     -9.77051743889432700000	    -24.16656586874871900000	    -17.12919676336217000000	     -8.40008190009264940000	     84.90551119967599900000	     70.09135363518402100000	      0.00000000000000664132	     -0.00000000000002570053	     -0.78985389158881880000	    -22.37011207559567100000	     -1.69777854492108180000	     91.05319382228253700000	     98.02271391555137800000	     -0.00000000000004354654	     -0.00000000000001645193
      0.93699999999999994000	     -0.09719090579538632000	      5.32932989635730700000	      0.01483178268994442300	      0.82100742758123324000	      0.99915716618780170000	     -0.33512539571351896000	     31.76835452198358200000	     -2.60638480378536430000	      0.84589485194025293000	    -83.61913518825892300000	     -0.25196746330085656000	     -0.00000000000008845520	     -0.00000000000004763937	     -1.50013140976103720000	     11.32113482742433200000	      8.30202192830069660000	    -28.63894684375280500000	     20.00822932832193500000	     -0.00000000000017182011	      0.00000000000004915699	    -15.58622821636753600000	    -12.13667875535022800000	     -9.82336845163644940000	    -24.29955918349000400000	    -17.11248490060146200000	     -8.43693701245796030000	     84.96600871846739300000	     70.10093724963411400000	      0.00000000000000664788	     -0.00000000000002578251	     -0.74825434704485105000	    -22.30258008435154700000	     -1.75704213127291360000	     91.24678201985187800000	     98.02682445216783000000	     -0.00000000000004366622	     -0.00000000000001667779
      0.93799999999999994000	     -0.10625491287051858000	      5.25159611011439060000	      0.00124758415742794780	      0.82119238397309069000	      0.99974478502892350000	     -0.33508326474019556000	     31.88781176652897600000	     -2.51649440759888470000	      0.78539752183294920000	    -83.25767686121382400000	     -0.18678482365346297000	     -0.00000000000008868122	     -0.00000000000004781246	     -1.84157264452667580000	     11.22035735000486400000	      8.37671605720673540000	    -28.32653709552230100000	     19.76411673585161900000	     -0.00000000000017260568	      0.00000000000004985889	    -15.55569354309408300000	    -12.03786831798169400000	     -9.87479952522367380000	    -24.43206319121388100000	    -17.09659140208322000000	     -8.47373218823894090000	     85.02709468586398600000	     70.11162342294346700000	      0.00000000000000665435	     -0.00000000000002586602	     -0.70940868335511897000	    -22.23634659597167800000	     -1.81526330872222250000	     91.44147667795134300000	     98.03229367373045000000	     -0.00000000000004378594	     -0.00000000000001691833
